<?xml version="1.0" encoding="iso-8859-1"?>
<!-- Generator: Adobe Illustrator 18.0.0, SVG Export Plug-In . SVG Version: 6.00 Build 0)  -->
<!DOCTYPE svg PUBLIC "-//W3C//DTD SVG 1.1//EN" "http://www.w3.org/Graphics/SVG/1.1/DTD/svg11.dtd">
<svg version="1.1" id="Capa_1" xmlns="http://www.w3.org/2000/svg" xmlns:xlink="http://www.w3.org/1999/xlink" x="0px" y="0px"
	 viewBox="0 0 371.849 371.849" style="enable-background:new 0 0 371.849 371.849;" xml:space="preserve">
<path d="M371.849,85.03v-6.99c0-22.71-12.071-40.5-27.482-40.5H27.482C12.071,37.539,0,55.329,0,78.039v6.99
	c0,15.267,5.46,28.3,13.718,35.21C5.524,125.002,0,133.872,0,144.012v4.463c0,8.706,4.074,16.474,10.41,21.513
	c-3.149,5.589-17.703,34.984,1.256,71.382c10.54,20.235,8.094,27.722,3.158,36.834c-5.341,9.86-11.989,22.131-6.804,33.077
	c3.868,8.165,8.02,19.907,8.062,20.024c0.634,1.8,2.336,3.003,4.244,3.003h22.471c1.467,0,2.842-0.715,3.685-1.917
	c0.842-1.202,1.046-2.738,0.546-4.118c-1.833-5.052-5.663-19.787-1.432-27.192c5.454-9.544,16.802-29.406,2.016-65.248
	c-9.543-23.135-3.7-28.642,4.931-33.436c9.867-5.482,36.333-8.408,60.358,0.357l0.97,0.354c10.46,3.83,38.244,14.003,72.056,14.003
	s61.596-10.173,72.056-14.003l0.969-0.354c24.026-8.765,50.49-5.838,60.359-0.357c8.63,4.794,14.474,10.301,4.93,33.436
	c-14.786,35.842-3.438,55.704,2.016,65.248c4.213,7.374,0.394,22.132-1.432,27.192c-0.5,1.379-0.296,2.916,0.546,4.118
	c0.842,1.202,2.217,1.917,3.685,1.917h22.471c1.908,0,3.609-1.204,4.244-3.003c0.042-0.118,4.19-11.85,8.062-20.024
	c5.185-10.946-1.463-23.217-6.804-33.077c-4.936-9.112-7.383-16.599,3.158-36.834c18.959-36.398,4.405-65.794,1.256-71.382
	c6.336-5.039,10.41-12.807,10.41-21.513v-4.463c0-10.141-5.524-19.01-13.718-23.772C366.389,113.33,371.849,100.297,371.849,85.03z
	 M27.482,46.539h316.885c6.343,0,12.06,5.788,15.403,14.365c-6.048,0.578-9.828,1.976-13.24,3.249
	c-4.255,1.589-7.931,2.961-16.148,2.961c-8.247,0-12.275-1.447-16.54-2.98c-4.578-1.645-9.768-3.51-19.582-3.51
	c-9.813,0-15.002,1.865-19.581,3.51c-4.264,1.532-8.292,2.979-16.537,2.979c-8.246,0-12.273-1.447-16.537-2.979
	c-4.578-1.646-9.767-3.51-19.581-3.51c-9.813,0-15.002,1.865-19.58,3.51c-4.264,1.532-8.291,2.979-16.536,2.979
	c-8.245,0-12.273-1.447-16.536-2.979c-4.578-1.646-9.767-3.51-19.58-3.51c-9.812,0-15,1.865-19.577,3.51
	c-4.263,1.532-8.29,2.979-16.534,2.979c-8.244,0-12.27-1.447-16.533-2.979c-4.577-1.646-9.765-3.51-19.577-3.51
	c-9.813,0-15.001,1.865-19.579,3.51c-4.264,1.532-8.291,2.979-16.536,2.979c-8.216,0-11.889-1.372-16.143-2.96
	c-3.412-1.274-7.185-2.676-13.233-3.254C15.424,52.325,21.14,46.539,27.482,46.539z M9,85.03v-6.99c0-2.863,0.243-5.649,0.686-8.308
	c5.753,0.349,8.918,1.523,12.478,2.853c4.43,1.654,9.45,3.529,19.291,3.529c9.813,0,15.002-1.865,19.58-3.51
	c4.264-1.532,8.291-2.979,16.536-2.979c8.243,0,12.27,1.447,16.533,2.979c4.577,1.646,9.766,3.51,19.577,3.51
	c9.813,0,15-1.865,19.578-3.51c4.263-1.532,8.29-2.979,16.533-2.979c8.245,0,12.272,1.447,16.536,2.979
	c4.578,1.646,9.767,3.51,19.58,3.51c9.813,0,15.001-1.865,19.579-3.51c4.264-1.533,8.291-2.98,16.536-2.98
	c8.245,0,12.272,1.447,16.537,2.979c4.578,1.646,9.768,3.51,19.581,3.51c9.813,0,15.002-1.865,19.581-3.51
	c4.264-1.533,8.292-2.98,16.537-2.98c8.246,0,12.274,1.447,16.538,2.979c4.579,1.646,9.769,3.51,19.583,3.51
	c9.843,0,14.865-1.875,19.296-3.529c3.561-1.329,6.732-2.501,12.485-2.85c0.443,2.658,0.686,5.442,0.686,8.305v6.99
	c0,0.69-0.019,1.374-0.046,2.054c-7.214,0.439-11.645,1.979-15.611,3.368c-4.394,1.539-8.545,2.992-16.81,2.992
	c-8.246,0-12.274-1.447-16.539-2.979c-4.579-1.646-9.768-3.51-19.583-3.51c-9.813,0-15.001,1.865-19.58,3.51
	c-4.264,1.533-8.291,2.98-16.537,2.98c-8.245,0-12.272-1.447-16.536-2.979c-4.578-1.646-9.767-3.51-19.581-3.51
	c-9.813,0-15.001,1.865-19.58,3.51c-4.264,1.532-8.291,2.979-16.536,2.979c-8.244,0-12.271-1.447-16.535-2.979
	c-4.578-1.646-9.767-3.51-19.58-3.51c-9.812,0-15.001,1.865-19.578,3.51c-4.263,1.532-8.29,2.979-16.533,2.979
	c-8.244,0-12.27-1.447-16.533-2.979c-4.577-1.646-9.765-3.51-19.577-3.51c-9.813,0-15.002,1.865-19.58,3.51
	c-4.264,1.532-8.291,2.979-16.535,2.979c-8.264,0-12.416-1.454-16.811-2.992c-3.966-1.388-8.393-2.929-15.603-3.369
	C9.019,86.403,9,85.72,9,85.03z M354.426,175.958c3.609,7.171,13.308,31.433-2.226,61.254c-11.38,21.848-9.865,32.769-3.088,45.279
	c5.56,10.265,9.576,18.619,6.583,24.938c-2.872,6.064-5.795,13.723-7.328,17.88h-13.262c1.904-7.465,3.909-20.035-1.038-28.692
	c-5.108-8.94-14.616-25.581-1.51-57.351c9.488-23,6.915-35.961-8.88-44.735c-13.048-7.248-42.685-9.398-67.814-0.231l-0.979,0.358
	c-10.996,4.026-36.746,13.454-68.961,13.454s-57.965-9.428-68.961-13.454l-0.979-0.358c-25.128-9.167-54.765-7.019-67.813,0.231
	c-15.795,8.774-18.368,21.735-8.88,44.735c13.106,31.77,3.598,48.411-1.51,57.351c-4.946,8.657-2.941,21.227-1.038,28.692H23.48
	c-1.533-4.157-4.456-11.817-7.328-17.88c-2.993-6.318,1.023-14.673,6.584-24.938c6.776-12.511,8.292-23.432-3.089-45.279
	c-15.539-29.832-5.828-54.1-2.226-61.254H354.426z M362.849,144.012v4.463c0,10.191-8.291,18.483-18.482,18.483H27.482
	C17.291,166.958,9,158.666,9,148.475v-4.463c0-10.191,8.291-18.483,18.482-18.483h316.885
	C354.558,125.529,362.849,133.821,362.849,144.012z M27.482,116.529c-7.724,0-14.519-8.578-17.229-20.331
	c4.918,0.475,8.103,1.587,11.423,2.748c4.683,1.639,9.991,3.498,19.785,3.498c9.813,0,15.001-1.865,19.579-3.51
	c4.264-1.533,8.291-2.98,16.536-2.98c8.243,0,12.27,1.447,16.533,2.979c4.577,1.646,9.765,3.51,19.577,3.51
	c9.812,0,15-1.865,19.577-3.51c4.263-1.532,8.29-2.979,16.534-2.979c8.245,0,12.272,1.447,16.536,2.98
	c4.578,1.645,9.767,3.51,19.579,3.51c9.813,0,15.002-1.865,19.58-3.51c4.264-1.532,8.291-2.979,16.536-2.979
	c8.246,0,12.274,1.447,16.537,2.98c4.578,1.645,9.767,3.51,19.58,3.51c9.814,0,15.003-1.865,19.581-3.51
	c4.264-1.532,8.291-2.979,16.536-2.979c8.247,0,12.275,1.447,16.54,2.98c4.579,1.645,9.768,3.51,19.582,3.51
	c9.795,0,15.102-1.858,19.784-3.498c3.319-1.162,6.509-2.273,11.429-2.747c-2.71,11.752-9.505,20.33-17.228,20.33H27.482z"/>
<g>
</g>
<g>
</g>
<g>
</g>
<g>
</g>
<g>
</g>
<g>
</g>
<g>
</g>
<g>
</g>
<g>
</g>
<g>
</g>
<g>
</g>
<g>
</g>
<g>
</g>
<g>
</g>
<g>
</g>
</svg>
