<svg width="400" height="400" xmlns="http://www.w3.org/2000/svg">
 <g id="Layer_1">
  <title>Layer 1</title>
  <line stroke-linecap="undefined" stroke-linejoin="undefined" id="svg_1" y2="130" x2="132" y1="129" x1="113" stroke="#000" fill="none"/>
  <line stroke-linecap="undefined" stroke-linejoin="undefined" id="svg_2" y2="133" x2="111" y1="261" x1="87" stroke="#000" fill="none"/>
  <line stroke-linecap="undefined" stroke-linejoin="undefined" id="svg_3" y2="265" x2="113" y1="128" x1="132" stroke="#000" fill="none"/>
  <line stroke-linecap="undefined" stroke-linejoin="undefined" id="svg_4" y2="263" x2="112" y1="264" x1="10" stroke="#000" fill="none"/>
  <line stroke-linecap="undefined" stroke-linejoin="undefined" id="svg_5" y2="263" x2="113" y1="349" x1="117" stroke="#000" fill="none"/>
  <line stroke-linecap="undefined" stroke-linejoin="undefined" id="svg_6" y2="262" x2="96" y1="345" x1="103" stroke="#000" fill="none"/>
  <line stroke-linecap="undefined" stroke-linejoin="undefined" id="svg_7" y2="284" x2="11" y1="263" x1="11" stroke="#000" fill="none"/>
  <line stroke-linecap="undefined" stroke-linejoin="undefined" id="svg_8" y2="282" x2="8" y1="280" x1="114" stroke="#000" fill="none"/>
  <line stroke-linecap="undefined" stroke-linejoin="undefined" id="svg_9" y2="346" x2="116" y1="345" x1="103" stroke="#000" fill="none"/>
  <line stroke-linecap="undefined" stroke-linejoin="undefined" id="svg_10" y2="347" x2="11" y1="282" x1="10" stroke="#000" fill="none"/>
  <line stroke-linecap="undefined" stroke-linejoin="undefined" id="svg_11" y2="352" x2="26" y1="283" x1="24" stroke="#000" fill="none"/>
  <line stroke-linecap="undefined" stroke-linejoin="undefined" id="svg_12" y2="344" x2="27" y1="343" x1="9" stroke="#000" fill="none"/>
  <line stroke-linecap="undefined" stroke-linejoin="undefined" id="svg_13" y2="302" x2="112" y1="304" x1="13" stroke="#000" fill="none"/>
  <line stroke-linecap="undefined" stroke-linejoin="undefined" id="svg_14" y2="188" x2="297" y1="188" x1="224" stroke="#000" fill="none"/>
  <line stroke-linecap="undefined" stroke-linejoin="undefined" id="svg_15" y2="186" x2="222" y1="218" x1="206" stroke="#000" fill="none"/>
  <line stroke-linecap="undefined" stroke-linejoin="undefined" id="svg_16" y2="189" x2="297" y1="216" x1="312" stroke="#000" fill="none"/>
  <line stroke-linecap="undefined" stroke-linejoin="undefined" id="svg_17" y2="348" x2="212" y1="214" x1="208" stroke="#000" fill="none"/>
  <line stroke-linecap="undefined" stroke-linejoin="undefined" id="svg_18" y2="350" x2="311" y1="213" x1="310" stroke="#000" fill="none"/>
  <line stroke-linecap="undefined" stroke-linejoin="undefined" id="svg_19" y2="344" x2="310" y1="345" x1="213" stroke="#000" fill="none"/>
  <line stroke-linecap="undefined" stroke-linejoin="undefined" id="svg_20" y2="288" x2="312" y1="317" x1="211" stroke="#000" fill="none"/>
  <line stroke-linecap="undefined" stroke-linejoin="undefined" id="svg_21" y2="351" x2="324" y1="214" x1="312" stroke="#000" fill="none"/>
  <line stroke-linecap="undefined" stroke-linejoin="undefined" id="svg_22" y2="344" x2="326" y1="341" x1="306" stroke="#000" fill="none"/>
  <line stroke-linecap="undefined" stroke-linejoin="undefined" id="svg_23" y2="285" x2="318" y1="288" x1="309" stroke="#000" fill="none"/>
  <path d="m122,131c0,0 0,-1 0,-1c0,-1 -0.38268,-2.07612 0,-3c0.5412,-1.30656 1,-2 1,-3c0,-1 0.4588,-1.69344 1,-3c0.76537,-1.84776 0.4588,-2.69344 1,-4c0.38268,-0.92388 0.61732,-2.07612 1,-3c0.5412,-1.30656 2.1731,-2.85273 3,-4c1.30745,-1.814 2,-3 3,-4c1,-1 2.4588,-0.69344 3,-2c0.38269,-0.92388 1.186,-0.69255 3,-2c1.14726,-0.8269 1.07613,-1.61732 2,-2c1.30656,-0.5412 3.15224,-1.23463 5,-2c1.30656,-0.5412 2.87856,-1.49346 6,-2c1.97418,-0.32037 3.0535,0.4595 5,0c2.17625,-0.51374 4,-1 5,-1c0,0 2,0 4,0c3,0 5,0 7,0c2,0 4,0 6,0c2,0 5.02248,0.63345 8,1c4.09221,0.50378 5.82375,1.48626 8,2c0.97325,0.22975 2.0535,-0.4595 4,0c2.17625,0.51374 3,1 5,2c2,1 4,1 6,2c2,1 4.29289,1.29289 5,2c0.70711,0.70711 1,1 3,2c2,1 4,1 5,2c1,1 2,2 4,3c2,1 3.186,1.69255 5,3c1.14726,0.8269 3,2 4,3c1,1 3.4588,1.69344 4,3c0.38269,0.92388 1.14935,1.47427 2,2c1.90211,1.17557 1.1731,2.85273 2,4c1.30745,1.814 1,3 2,4c1,1 1.4588,1.69344 2,3c0.76537,1.84776 0.69255,3.186 2,5c0.8269,1.14726 1.1731,1.85274 2,3c1.30745,1.814 1.48625,2.82375 2,5c0.22975,0.97325 1,2 1,3c0,1 1,3 1,4c0,2 1,3 1,4c0,1 -0.38269,3.07613 0,4c0.5412,1.30656 1,3 1,4c0,1 0,2 0,3c0,1 1,2 1,3c0,2 0,2 0,3c0,1 0.4588,0.69344 1,2c0.38269,0.92387 0,2 0,3c0,1 0,2 0,2c0,0 0,1 1,1c0,0 0,1 0,1c0,1 1,1 1,1c0,0 0,1 0,1l0,0" id="svg_24" stroke="#000" fill="none"/>
 </g>
</svg>